<svg xmlns="http://www.w3.org/2000/svg" width="399.4" height="98.3" viewBox="0 0 399.4 98.3" role="img" aria-labelledby="t d"><title id="t">Second Pair</title><desc id="d">Speech bubble with two dots, the words second pair, and the line you work, we answer</desc><g transform="translate(8,15.304)"><g transform="translate(0,0) scale(1)"><path d="M18 0h40a18 18 0 0 1 18 18v22a18 18 0 0 1-18 18H36l-20 16V58h-.5A17.5 17.5 0 0 1 0 40.5V18A18 18 0 0 1 18 0Z" fill="#EFEEE9"/><circle cx="26" cy="28" r="7" fill="#14243F"/><circle cx="50" cy="28" r="7" fill="#F07818"/></g><path d="M115.66015625 31.109375Q112.740234375 31.109375 110.4677734375 30.2587890625Q108.1953125 29.408203125 106.72265625 27.732421875Q105.25 26.056640625 104.7421875 23.619140625L109.083984375 22.578125Q109.693359375 24.9140625 111.3818359375 26.005859375Q113.0703125 27.09765625 115.609375 27.09765625Q118.580078125 27.09765625 120.3447265625 25.828125Q122.109375 24.55859375 122.109375 22.806640625Q122.109375 21.333984375 121.0810546875 20.3564453125Q120.052734375 19.37890625 117.9453125 18.896484375L113.22265625 17.779296875Q109.36328125 16.865234375 107.484375 14.9482421875Q105.60546875 13.03125 105.60546875 10.03515625Q105.60546875 7.59765625 106.9765625 5.7314453125Q108.34765625 3.865234375 110.7216796875 2.8115234375Q113.095703125 1.7578125 116.1171875 1.7578125Q119.037109375 1.7578125 121.0810546875 2.6337890625Q123.125 3.509765625 124.4072265625 5.0458984375Q125.689453125 6.58203125 126.32421875 8.587890625L122.185546875 9.654296875Q121.6015625 8.130859375 120.2431640625 6.88671875Q118.884765625 5.642578125 116.142578125 5.642578125Q113.603515625 5.642578125 111.9150390625 6.810546875Q110.2265625 7.978515625 110.2265625 9.755859375Q110.2265625 11.330078125 111.369140625 12.2822265625Q112.51171875 13.234375 115.0 13.818359375L119.291015625 14.833984375Q123.150390625 15.748046875 125.00390625 17.6650390625Q126.857421875 19.58203125 126.857421875 22.501953125Q126.857421875 24.990234375 125.4482421875 26.9326171875Q124.0390625 28.875 121.5126953125 29.9921875Q118.986328125 31.109375 115.66015625 31.109375Z M144.352578125 31.109375Q140.239296875 31.109375 137.2558984375 29.28125Q134.2725 27.453125 132.6601953125 24.177734375Q131.047890625 20.90234375 131.047890625 16.53515625Q131.047890625 12.16796875 132.622109375 8.841796875Q134.196328125 5.515625 137.0781640625 3.63671875Q139.96 1.7578125 143.819375 1.7578125Q146.079140625 1.7578125 148.2754296875 2.5068359375Q150.47171875 3.255859375 152.2617578125 4.9189453125Q154.051796875 6.58203125 155.118203125 9.298828125Q156.184609375 12.015625 156.184609375 15.951171875V17.85546875H134.145546875V13.99609375H153.72171875L151.58890625 15.41796875Q151.58890625 12.625 150.7129296875 10.4541015625Q149.836953125 8.283203125 148.110390625 7.0517578125Q146.383828125 5.8203125 143.819375 5.8203125Q141.254921875 5.8203125 139.426796875 7.0771484375Q137.598671875 8.333984375 136.633828125 10.3525390625Q135.668984375 12.37109375 135.668984375 14.681640625V17.24609375Q135.668984375 20.39453125 136.76078125 22.5908203125Q137.852578125 24.787109375 139.8203515625 25.9169921875Q141.788125 27.046875 144.37796875 27.046875Q146.05375 27.046875 147.42484375 26.564453125Q148.7959375 26.08203125 149.786171875 25.1044921875Q150.77640625 24.126953125 151.309609375 22.6796875L155.727578125 23.8984375Q155.067421875 26.03125 153.493203125 27.65625Q151.918984375 29.28125 149.5957421875 30.1953125Q147.2725 31.109375 144.352578125 31.109375Z M173.24812500000002 31.109375Q169.38875000000002 31.109375 166.48152343750002 29.28125Q163.57429687500002 27.453125 161.94929687500002 24.15234375Q160.32429687500002 20.8515625 160.32429687500002 16.484375Q160.32429687500002 12.041015625 161.94929687500002 8.7275390625Q163.57429687500002 5.4140625 166.48152343750002 3.5859375Q169.38875000000002 1.7578125 173.24812500000002 1.7578125Q175.30476562500002 1.7578125 177.13289062500002 2.291015625Q178.96101562500002 2.82421875 180.47175781250002 3.8271484375Q181.98250000000002 4.830078125 183.07429687500002 6.2900390625Q184.16609375000002 7.75 184.75007812500002 9.603515625L180.35750000000002 10.84765625Q180.05281250000002 9.755859375 179.41804687500002 8.841796875Q178.78328125000002 7.927734375 177.88191406250002 7.2548828125Q176.98054687500002 6.58203125 175.81257812500002 6.2138671875Q174.64460937500002 5.845703125 173.24812500000002 5.845703125Q170.40437500000002 5.845703125 168.57625000000002 7.3310546875Q166.74812500000002 8.81640625 165.85945312500002 11.228515625Q164.97078125000002 13.640625 164.97078125000002 16.484375Q164.97078125000002 19.27734375 165.85945312500002 21.6767578125Q166.74812500000002 24.076171875 168.57625000000002 25.548828125Q170.40437500000002 27.021484375 173.24812500000002 27.021484375Q174.67000000000002 27.021484375 175.86335937500002 26.640625Q177.05671875000002 26.259765625 177.98347656250002 25.5615234375Q178.91023437500002 24.86328125 179.54500000000002 23.8984375Q180.17976562500002 22.93359375 180.48445312500002 21.791015625L184.85164062500002 23.03515625Q184.29304687500002 24.939453125 183.18855468750002 26.4248046875Q182.08406250000002 27.91015625 180.56062500000002 28.9638671875Q179.03718750000002 30.017578125 177.18367187500002 30.5634765625Q175.33015625000002 31.109375 173.24812500000002 31.109375Z M201.91515625000002 31.109375Q198.05578125000002 31.109375 195.14855468750002 29.28125Q192.24132812500002 27.453125 190.61632812500002 24.15234375Q188.99132812500002 20.8515625 188.99132812500002 16.484375Q188.99132812500002 12.041015625 190.61632812500002 8.7275390625Q192.24132812500002 5.4140625 195.14855468750002 3.5859375Q198.05578125000002 1.7578125 201.91515625000002 1.7578125Q205.79992187500002 1.7578125 208.71984375000002 3.5859375Q211.63976562500002 5.4140625 213.26476562500002 8.7275390625Q214.88976562500002 12.041015625 214.88976562500002 16.484375Q214.88976562500002 20.8515625 213.26476562500002 24.15234375Q211.63976562500002 27.453125 208.71984375000002 29.28125Q205.79992187500002 31.109375 201.91515625000002 31.109375ZM201.91515625000002 27.021484375Q204.78429687500002 27.021484375 206.63781250000002 25.548828125Q208.49132812500002 24.076171875 209.38000000000002 21.6767578125Q210.26867187500002 19.27734375 210.26867187500002 16.484375Q210.26867187500002 13.666015625 209.38000000000002 11.2412109375Q208.49132812500002 8.81640625 206.63781250000002 7.3310546875Q204.78429687500002 5.845703125 201.91515625000002 5.845703125Q199.07140625000002 5.845703125 197.24328125000002 7.3310546875Q195.41515625000002 8.81640625 194.52648437500002 11.228515625Q193.63781250000002 13.640625 193.63781250000002 16.484375Q193.63781250000002 19.27734375 194.52648437500002 21.6767578125Q195.41515625000002 24.076171875 197.24328125000002 25.548828125Q199.07140625000002 27.021484375 201.91515625000002 27.021484375Z M225.07242187500003 13.48828125V30.5H220.50210937500003V2.11328125H224.89468750000003L224.92007812500003 8.994140625H224.28531250000003Q225.58023437500003 5.05859375 227.97964843750003 3.408203125Q230.37906250000003 1.7578125 233.60367187500003 1.7578125Q236.47281250000003 1.7578125 238.63101562500003 2.9384765625Q240.78921875000003 4.119140625 241.99527343750003 6.4931640625Q243.20132812500003 8.8671875 243.20132812500003 12.47265625V30.5H238.63101562500003V12.853515625Q238.63101562500003 9.578125 236.91714843750003 7.724609375Q235.20328125000003 5.87109375 232.23257812500003 5.87109375Q230.20132812500003 5.87109375 228.57632812500003 6.759765625Q226.95132812500003 7.6484375 226.01187500000003 9.349609375Q225.07242187500003 11.05078125 225.07242187500003 13.48828125Z M260.82343750000007 31.109375Q257.29414062500007 31.109375 254.57734375000007 29.306640625Q251.86054687500004 27.50390625 250.33710937500004 24.203125Q248.81367187500004 20.90234375 248.81367187500004 16.3828125Q248.81367187500004 11.888671875 250.34980468750004 8.6005859375Q251.88593750000004 5.3125 254.60273437500007 3.53515625Q257.31953125000007 1.7578125 260.84882812500007 1.7578125Q263.61640625000007 1.7578125 265.24140625000007 2.671875Q266.86640625000007 3.5859375 267.74238281250007 4.7412109375Q268.61835937500007 5.896484375 269.07539062500007 6.658203125H269.43085937500007V-7.33203125H274.00117187500007V30.5H269.58320312500007V26.107421875H269.07539062500007Q268.61835937500007 26.89453125 267.71699218750007 28.0751953125Q266.81562500000007 29.255859375 265.17792968750007 30.1826171875Q263.54023437500007 31.109375 260.82343750000007 31.109375ZM261.50898437500007 27.021484375Q264.09882812500007 27.021484375 265.87617187500007 25.6630859375Q267.65351562500007 24.3046875 268.56757812500007 21.892578125Q269.48164062500007 19.48046875 269.48164062500007 16.33203125Q269.48164062500007 13.18359375 268.58027343750007 10.8349609375Q267.67890625000007 8.486328125 265.90156250000007 7.166015625Q264.12421875000007 5.845703125 261.50898437500007 5.845703125Q258.81757812500007 5.845703125 257.02753906250007 7.2421875Q255.23750000000004 8.638671875 254.34882812500004 11.0126953125Q253.46015625000004 13.38671875 253.46015625000004 16.33203125Q253.46015625000004 19.302734375 254.36152343750004 21.7275390625Q255.26289062500004 24.15234375 257.06562500000007 25.5869140625Q258.86835937500007 27.021484375 261.50898437500007 27.021484375Z" fill="#EFEEE9"/><path d="M295.355703125 41.11328125V2.11328125H300.789296875V6.734375H301.246328125Q301.754140625 5.845703125 302.6555078125 4.677734375Q303.556875 3.509765625 305.1691796875 2.6337890625Q306.781484375 1.7578125 309.4475 1.7578125Q312.84984375 1.7578125 315.5285546875 3.484375Q318.207265625 5.2109375 319.75609375 8.486328125Q321.304921875 11.76171875 321.304921875 16.3828125Q321.304921875 20.953125 319.781484375 24.2412109375Q318.258046875 27.529296875 315.5793359375 29.2939453125Q312.900625 31.05859375 309.4475 31.05859375Q306.883046875 31.05859375 305.2453515625 30.1826171875Q303.60765625 29.306640625 302.6808984375 28.138671875Q301.754140625 26.970703125 301.246328125 26.056640625H300.941640625V41.11328125ZM308.203359375 26.310546875Q310.640859375 26.310546875 312.29125 24.990234375Q313.941640625 23.669921875 314.7668359375 21.41015625Q315.59203125 19.150390625 315.59203125 16.33203125Q315.59203125 13.5390625 314.7668359375 11.3173828125Q313.941640625 9.095703125 312.3039453125 7.80078125Q310.66625 6.505859375 308.203359375 6.505859375Q305.816640625 6.505859375 304.16625 7.7373046875Q302.515859375 8.96875 301.67796875 11.1650390625Q300.840078125 13.361328125 300.840078125 16.33203125Q300.840078125 19.27734375 301.6906640625 21.5244140625Q302.54125 23.771484375 304.191640625 25.041015625Q305.84203125 26.310546875 308.203359375 26.310546875Z M334.40749999999997 31.134765625Q331.71609374999997 31.134765625 329.53249999999997 30.1318359375Q327.34890624999997 29.12890625 326.07937499999997 27.19921875Q324.80984374999997 25.26953125 324.80984374999997 22.4765625Q324.80984374999997 20.064453125 325.73660156249997 18.515625Q326.66335937499997 16.966796875 328.25027343749997 16.052734375Q329.83718749999997 15.138671875 331.77957031249997 14.681640625Q333.72195312499997 14.224609375 335.72781249999997 13.99609375Q338.24148437499997 13.69140625 339.81570312499997 13.5009765625Q341.38992187499997 13.310546875 342.13894531249997 12.8662109375Q342.88796874999997 12.421875 342.88796874999997 11.431640625V11.279296875Q342.88796874999997 9.6796875 342.27859374999997 8.587890625Q341.66921874999997 7.49609375 340.46316406249997 6.8994140625Q339.25710937499997 6.302734375 337.45437499999997 6.302734375Q335.60085937499997 6.302734375 334.26785156249997 6.8740234375Q332.93484374999997 7.4453125 332.10964843749997 8.333984375Q331.28445312499997 9.22265625 330.87820312499997 10.1875L325.62234374999997 8.81640625Q326.58718749999997 6.27734375 328.38992187499997 4.728515625Q330.19265624999997 3.1796875 332.52859374999997 2.46875Q334.86453124999997 1.7578125 337.35281249999997 1.7578125Q339.07937499999997 1.7578125 341.00906249999997 2.1640625Q342.93874999999997 2.5703125 344.63992187499997 3.63671875Q346.34109374999997 4.703125 347.40749999999997 6.6328125Q348.47390624999997 8.5625 348.47390624999997 11.66015625V30.5H343.06570312499997V26.615234375H342.78640624999997Q342.22781249999997 27.70703125 341.13601562499997 28.748046875Q340.04421874999997 29.7890625 338.38113281249997 30.4619140625Q336.71804687499997 31.134765625 334.40749999999997 31.134765625ZM335.65164062499997 26.640625Q337.93679687499997 26.640625 339.56179687499997 25.751953125Q341.18679687499997 24.86328125 342.05007812499997 23.390625Q342.91335937499997 21.91796875 342.91335937499997 20.267578125V16.63671875Q342.60867187499997 16.94140625 341.75808593749997 17.1826171875Q340.90749999999997 17.423828125 339.81570312499997 17.6142578125Q338.72390624999997 17.8046875 337.70828124999997 17.931640625Q336.69265624999997 18.05859375 336.03249999999997 18.134765625Q334.45828124999997 18.337890625 333.15066406249997 18.8203125Q331.84304687499997 19.302734375 331.06863281249997 20.19140625Q330.29421874999997 21.080078125 330.29421874999997 22.552734375Q330.29421874999997 23.8984375 330.99246093749997 24.8125Q331.69070312499997 25.7265625 332.88406249999997 26.18359375Q334.07742187499997 26.640625 335.65164062499997 26.640625Z M354.94953124999995 30.5V2.11328125H360.53546874999995V30.5ZM357.76789062499995 -2.228515625Q356.32062499999995 -2.228515625 355.29230468749995 -3.193359375Q354.26398437499995 -4.158203125 354.26398437499995 -5.529296875Q354.26398437499995 -6.92578125 355.29230468749995 -7.890625Q356.32062499999995 -8.85546875 357.76789062499995 -8.85546875Q359.21515624999995 -8.85546875 360.25617187499995 -7.890625Q361.29718749999995 -6.92578125 361.29718749999995 -5.529296875Q361.29718749999995 -4.158203125 360.25617187499995 -3.193359375Q359.21515624999995 -2.228515625 357.76789062499995 -2.228515625Z M367.01109374999993 30.5V2.11328125H372.41929687499993V6.68359375H372.72398437499993Q373.51109374999993 4.34765625 375.46617187499993 3.02734375Q377.42124999999993 1.70703125 379.90953124999993 1.70703125Q380.44273437499993 1.70703125 381.12828124999993 1.7451171875Q381.81382812499993 1.783203125 382.27085937499993 1.859375V7.19140625Q381.96617187499993 7.08984375 381.10289062499993 6.98828125Q380.23960937499993 6.88671875 379.35093749999993 6.88671875Q377.42124999999993 6.88671875 375.87242187499993 7.69921875Q374.32359374999993 8.51171875 373.46031249999993 9.9462890625Q372.59703124999993 11.380859375 372.59703124999993 13.259765625V30.5Z" fill="#EFEEE9"/><path d="M104.572265625 74.04833984375 105.0888671875 72.29638671875 105.30224609375 72.3525390625Q105.919921875 72.509765625 106.42529296875 72.436767578125Q106.9306640625 72.36376953125 107.3349609375 71.93701171875Q107.7392578125 71.51025390625 108.04248046875 70.61181640625L108.40185546875 69.5673828125L103.6064453125 56.9443359375H105.81884765625L108.49169921875 64.39013671875Q108.91845703125 65.55810546875 109.21044921875 66.70361328125Q109.50244140625 67.84912109375 109.828125 68.92724609375H109.0869140625Q109.41259765625 67.84912109375 109.710205078125 66.697998046875Q110.0078125 65.546875 110.42333984375 64.39013671875L113.11865234375 56.9443359375H115.31982421875L109.8056640625 71.37548828125Q109.423828125 72.375 108.890380859375 73.020751953125Q108.35693359375 73.66650390625 107.6494140625 73.975341796875Q106.94189453125 74.2841796875 106.0546875 74.2841796875Q105.515625 74.2841796875 105.12255859375 74.20556640625Q104.7294921875 74.126953125 104.572265625 74.04833984375Z M122.810546875 69.76953125Q121.103515625 69.76953125 119.817626953125 68.9609375Q118.53173828125 68.15234375 117.81298828125 66.6923828125Q117.09423828125 65.232421875 117.09423828125 63.30078125Q117.09423828125 61.33544921875 117.81298828125 59.869873046875Q118.53173828125 58.404296875 119.817626953125 57.595703125Q121.103515625 56.787109375 122.810546875 56.787109375Q124.52880859375 56.787109375 125.8203125 57.595703125Q127.11181640625 58.404296875 127.83056640625 59.869873046875Q128.54931640625 61.33544921875 128.54931640625 63.30078125Q128.54931640625 65.232421875 127.83056640625 66.6923828125Q127.11181640625 68.15234375 125.8203125 68.9609375Q124.52880859375 69.76953125 122.810546875 69.76953125ZM122.810546875 67.96142578125Q124.07958984375 67.96142578125 124.8994140625 67.31005859375Q125.71923828125 66.65869140625 126.1123046875 65.597412109375Q126.50537109375 64.5361328125 126.50537109375 63.30078125Q126.50537109375 62.05419921875 126.1123046875 60.981689453125Q125.71923828125 59.9091796875 124.8994140625 59.252197265625Q124.07958984375 58.59521484375 122.810546875 58.59521484375Q121.552734375 58.59521484375 120.744140625 59.252197265625Q119.935546875 59.9091796875 119.54248046875 60.97607421875Q119.1494140625 62.04296875 119.1494140625 63.30078125Q119.1494140625 64.5361328125 119.54248046875 65.597412109375Q119.935546875 66.65869140625 120.744140625 67.31005859375Q121.552734375 67.96142578125 122.810546875 67.96142578125Z M135.748046875 69.6572265625Q134.47900390625 69.6572265625 133.518798828125 69.135009765625Q132.55859375 68.61279296875 132.025146484375 67.55712890625Q131.49169921875 66.50146484375 131.49169921875 64.91796875V56.9443359375H133.51318359375V64.74951171875Q133.51318359375 66.1982421875 134.27685546875 67.01806640625Q135.04052734375 67.837890625 136.3544921875 67.837890625Q137.2529296875 67.837890625 137.966064453125 67.44482421875Q138.67919921875 67.0517578125 139.0947265625 66.293701171875Q139.51025390625 65.53564453125 139.51025390625 64.46875V56.9443359375H141.54296875V69.5H139.5888671875V66.45654296875H139.8583984375Q139.2744140625 68.2197265625 138.201904296875 68.9384765625Q137.12939453125 69.6572265625 135.748046875 69.6572265625Z M154.37939453125 69.5 150.572265625 56.9443359375H152.71728515625L154.24462890625 62.4248046875Q154.55908203125 63.5478515625 154.91845703125 64.968505859375Q155.27783203125 66.38916015625 155.6259765625 68.18603515625H155.27783203125Q155.61474609375 66.4677734375 155.962890625 65.04150390625Q156.31103515625 63.615234375 156.63671875 62.4248046875L158.1416015625 56.9443359375H160.2978515625L161.7802734375 62.4248046875Q162.0947265625 63.58154296875 162.437255859375 65.002197265625Q162.77978515625 66.4228515625 163.11669921875 68.18603515625H162.75732421875Q163.11669921875 66.4453125 163.470458984375 65.024658203125Q163.82421875 63.60400390625 164.14990234375 62.4248046875L165.67724609375 56.9443359375H167.822265625L164.01513671875 69.5H162.0048828125L160.37646484375 63.8173828125Q160.12939453125 62.95263671875 159.8935546875 62.05419921875Q159.65771484375 61.15576171875 159.43310546875 60.21240234375Q159.20849609375 59.26904296875 158.97265625 58.2919921875H159.421875Q159.197265625 59.2578125 158.967041015625 60.206787109375Q158.73681640625 61.15576171875 158.5009765625 62.0654296875Q158.26513671875 62.97509765625 158.01806640625 63.8173828125L156.3896484375 69.5Z M175.49267578125 69.76953125Q173.78564453125 69.76953125 172.499755859375 68.9609375Q171.2138671875 68.15234375 170.4951171875 66.6923828125Q169.7763671875 65.232421875 169.7763671875 63.30078125Q169.7763671875 61.33544921875 170.4951171875 59.869873046875Q171.2138671875 58.404296875 172.499755859375 57.595703125Q173.78564453125 56.787109375 175.49267578125 56.787109375Q177.2109375 56.787109375 178.50244140625 57.595703125Q179.7939453125 58.404296875 180.5126953125 59.869873046875Q181.2314453125 61.33544921875 181.2314453125 63.30078125Q181.2314453125 65.232421875 180.5126953125 66.6923828125Q179.7939453125 68.15234375 178.50244140625 68.9609375Q177.2109375 69.76953125 175.49267578125 69.76953125ZM175.49267578125 67.96142578125Q176.76171875 67.96142578125 177.58154296875 67.31005859375Q178.4013671875 66.65869140625 178.79443359375 65.597412109375Q179.1875 64.5361328125 179.1875 63.30078125Q179.1875 62.05419921875 178.79443359375 60.981689453125Q178.4013671875 59.9091796875 177.58154296875 59.252197265625Q176.76171875 58.59521484375 175.49267578125 58.59521484375Q174.23486328125 58.59521484375 173.42626953125 59.252197265625Q172.61767578125 59.9091796875 172.224609375 60.97607421875Q171.83154296875 62.04296875 171.83154296875 63.30078125Q171.83154296875 64.5361328125 172.224609375 65.597412109375Q172.61767578125 66.65869140625 173.42626953125 67.31005859375Q174.23486328125 67.96142578125 175.49267578125 67.96142578125Z M184.173828125 69.5V56.9443359375H186.1279296875V58.8759765625H186.2626953125Q186.61083984375 57.92138671875 187.503662109375 57.343017578125Q188.396484375 56.7646484375 189.51953125 56.7646484375Q189.744140625 56.7646484375 190.052978515625 56.77587890625Q190.36181640625 56.787109375 190.54150390625 56.79833984375V58.8310546875Q190.45166015625 58.80859375 190.09228515625 58.763671875Q189.73291015625 58.71875 189.32861328125 58.71875Q188.43017578125 58.71875 187.717041015625 59.094970703125Q187.00390625 59.47119140625 186.599609375 60.128173828125Q186.1953125 60.78515625 186.1953125 61.638671875V69.5Z M194.73046875 64.9853515625V62.48095703125H195.10107421875L200.46923828125 56.9443359375H202.9736328125L197.16748046875 62.90771484375H196.94287109375ZM192.83251953125 69.5V52.7666015625H194.85400390625V69.5ZM200.7724609375 69.5 195.9658203125 63.35693359375 197.4033203125 61.9306640625 203.36669921875 69.5Z M205.11865234375 73.53173828125 206.10693359375 67.1640625H208.42041015625L206.66845703125 73.53173828125Z M221.369140625 69.5 217.56201171875 56.9443359375H219.70703125L221.234375 62.4248046875Q221.548828125 63.5478515625 221.908203125 64.968505859375Q222.267578125 66.38916015625 222.61572265625 68.18603515625H222.267578125Q222.6044921875 66.4677734375 222.95263671875 65.04150390625Q223.30078125 63.615234375 223.62646484375 62.4248046875L225.13134765625 56.9443359375H227.28759765625L228.77001953125 62.4248046875Q229.08447265625 63.58154296875 229.427001953125 65.002197265625Q229.76953125 66.4228515625 230.1064453125 68.18603515625H229.7470703125Q230.1064453125 66.4453125 230.460205078125 65.024658203125Q230.81396484375 63.60400390625 231.1396484375 62.4248046875L232.6669921875 56.9443359375H234.81201171875L231.0048828125 69.5H228.99462890625L227.3662109375 63.8173828125Q227.119140625 62.95263671875 226.88330078125 62.05419921875Q226.6474609375 61.15576171875 226.4228515625 60.21240234375Q226.1982421875 59.26904296875 225.96240234375 58.2919921875H226.41162109375Q226.18701171875 59.2578125 225.956787109375 60.206787109375Q225.7265625 61.15576171875 225.49072265625 62.0654296875Q225.2548828125 62.97509765625 225.0078125 63.8173828125L223.37939453125 69.5Z M242.65087890625 69.76953125Q240.83154296875 69.76953125 239.511962890625 68.9609375Q238.1923828125 68.15234375 237.479248046875 66.70361328125Q236.76611328125 65.2548828125 236.76611328125 63.3232421875Q236.76611328125 61.3916015625 237.46240234375 59.92041015625Q238.15869140625 58.44921875 239.433349609375 57.6181640625Q240.7080078125 56.787109375 242.4150390625 56.787109375Q243.41455078125 56.787109375 244.385986328125 57.118408203125Q245.357421875 57.44970703125 246.149169921875 58.185302734375Q246.94091796875 58.9208984375 247.41259765625 60.12255859375Q247.88427734375 61.32421875 247.88427734375 63.06494140625V63.9072265625H238.13623046875V62.2001953125H246.794921875L245.8515625 62.8291015625Q245.8515625 61.59375 245.464111328125 60.633544921875Q245.07666015625 59.67333984375 244.31298828125 59.128662109375Q243.54931640625 58.583984375 242.4150390625 58.583984375Q241.28076171875 58.583984375 240.47216796875 59.139892578125Q239.66357421875 59.69580078125 239.23681640625 60.588623046875Q238.81005859375 61.4814453125 238.81005859375 62.50341796875V63.6376953125Q238.81005859375 65.0302734375 239.29296875 66.001708984375Q239.77587890625 66.97314453125 240.646240234375 67.472900390625Q241.5166015625 67.97265625 242.662109375 67.97265625Q243.4033203125 67.97265625 244.009765625 67.75927734375Q244.6162109375 67.5458984375 245.05419921875 67.113525390625Q245.4921875 66.68115234375 245.72802734375 66.041015625L247.68212890625 66.580078125Q247.39013671875 67.5234375 246.69384765625 68.2421875Q245.99755859375 68.9609375 244.969970703125 69.365234375Q243.9423828125 69.76953125 242.65087890625 69.76953125Z M260.765625 69.7919921875Q259.5751953125 69.7919921875 258.603759765625 69.3427734375Q257.63232421875 68.8935546875 257.0595703125 68.02880859375Q256.48681640625 67.1640625 256.48681640625 65.9287109375Q256.48681640625 64.8505859375 256.91357421875 64.1767578125Q257.34033203125 63.5029296875 258.053466796875 63.115478515625Q258.7666015625 62.72802734375 259.63134765625 62.537109375Q260.49609375 62.34619140625 261.3720703125 62.23388671875Q262.4951171875 62.087890625 263.20263671875 62.00927734375Q263.91015625 61.9306640625 264.252685546875 61.73974609375Q264.59521484375 61.548828125 264.59521484375 61.08837890625V61.02099609375Q264.59521484375 60.23486328125 264.30322265625 59.690185546875Q264.01123046875 59.1455078125 263.42724609375 58.853515625Q262.84326171875 58.5615234375 261.96728515625 58.5615234375Q261.06884765625 58.5615234375 260.4287109375 58.84228515625Q259.78857421875 59.123046875 259.389892578125 59.544189453125Q258.9912109375 59.96533203125 258.7890625 60.4033203125L256.84619140625 59.76318359375Q257.3291015625 58.61767578125 258.14892578125 57.971923828125Q258.96875 57.326171875 259.95703125 57.056640625Q260.9453125 56.787109375 261.9111328125 56.787109375Q262.5400390625 56.787109375 263.343017578125 56.938720703125Q264.14599609375 57.09033203125 264.892822265625 57.53955078125Q265.6396484375 57.98876953125 266.128173828125 58.870361328125Q266.61669921875 59.751953125 266.61669921875 61.22314453125V69.5H264.62890625V67.79296875H264.494140625Q264.28076171875 68.23095703125 263.80908203125 68.697021484375Q263.33740234375 69.1630859375 262.5849609375 69.4775390625Q261.83251953125 69.7919921875 260.765625 69.7919921875ZM261.11376953125 68.00634765625Q262.23681640625 68.00634765625 263.01171875 67.568359375Q263.78662109375 67.13037109375 264.19091796875 66.428466796875Q264.59521484375 65.7265625 264.59521484375 64.962890625V63.22216796875Q264.4716796875 63.3681640625 264.05615234375 63.486083984375Q263.640625 63.60400390625 263.107177734375 63.69384765625Q262.57373046875 63.78369140625 262.073974609375 63.845458984375Q261.57421875 63.9072265625 261.2822265625 63.94091796875Q260.55224609375 64.03076171875 259.917724609375 64.249755859375Q259.283203125 64.46875 258.9013671875 64.889892578125Q258.51953125 65.31103515625 258.51953125 66.02978515625Q258.51953125 66.68115234375 258.8564453125 67.119140625Q259.193359375 67.55712890625 259.77734375 67.78173828125Q260.361328125 68.00634765625 261.11376953125 68.00634765625Z M272.18701171875 61.9755859375V69.5H270.16552734375V56.9443359375H272.1083984375L272.11962890625 59.98779296875H271.8388671875Q272.41162109375 58.2470703125 273.472900390625 57.51708984375Q274.5341796875 56.787109375 275.96044921875 56.787109375Q277.2294921875 56.787109375 278.18408203125 57.309326171875Q279.138671875 57.83154296875 279.672119140625 58.881591796875Q280.20556640625 59.931640625 280.20556640625 61.5263671875V69.5H278.18408203125V61.69482421875Q278.18408203125 60.24609375 277.426025390625 59.42626953125Q276.66796875 58.6064453125 275.35400390625 58.6064453125Q274.45556640625 58.6064453125 273.73681640625 58.99951171875Q273.01806640625 59.392578125 272.6025390625 60.14501953125Q272.18701171875 60.8974609375 272.18701171875 61.9755859375Z M288.02197265625 69.76953125Q286.73046875 69.76953125 285.725341796875 69.393310546875Q284.72021484375 69.01708984375 284.06884765625 68.27587890625Q283.41748046875 67.53466796875 283.19287109375 66.45654296875L285.11328125 65.99609375Q285.3828125 67.029296875 286.129638671875 67.51220703125Q286.87646484375 67.9951171875 287.99951171875 67.9951171875Q289.3134765625 67.9951171875 290.093994140625 67.43359375Q290.87451171875 66.8720703125 290.87451171875 66.09716796875Q290.87451171875 65.44580078125 290.419677734375 65.013427734375Q289.96484375 64.5810546875 289.03271484375 64.36767578125L286.94384765625 63.87353515625Q285.23681640625 63.46923828125 284.40576171875 62.621337890625Q283.57470703125 61.7734375 283.57470703125 60.4482421875Q283.57470703125 59.3701171875 284.18115234375 58.544677734375Q284.78759765625 57.71923828125 285.837646484375 57.253173828125Q286.8876953125 56.787109375 288.22412109375 56.787109375Q289.515625 56.787109375 290.419677734375 57.174560546875Q291.32373046875 57.56201171875 291.890869140625 58.241455078125Q292.4580078125 58.9208984375 292.73876953125 59.80810546875L290.908203125 60.27978515625Q290.64990234375 59.60595703125 290.049072265625 59.0556640625Q289.4482421875 58.50537109375 288.2353515625 58.50537109375Q287.1123046875 58.50537109375 286.365478515625 59.02197265625Q285.61865234375 59.53857421875 285.61865234375 60.32470703125Q285.61865234375 61.02099609375 286.1240234375 61.442138671875Q286.62939453125 61.86328125 287.72998046875 62.12158203125L289.6279296875 62.57080078125Q291.3349609375 62.97509765625 292.15478515625 63.822998046875Q292.974609375 64.6708984375 292.974609375 65.96240234375Q292.974609375 67.06298828125 292.351318359375 67.922119140625Q291.72802734375 68.78125 290.610595703125 69.275390625Q289.4931640625 69.76953125 288.02197265625 69.76953125Z M298.71337890625 69.5 294.90625 56.9443359375H297.05126953125L298.57861328125 62.4248046875Q298.89306640625 63.5478515625 299.25244140625 64.968505859375Q299.61181640625 66.38916015625 299.9599609375 68.18603515625H299.61181640625Q299.94873046875 66.4677734375 300.296875 65.04150390625Q300.64501953125 63.615234375 300.970703125 62.4248046875L302.4755859375 56.9443359375H304.6318359375L306.1142578125 62.4248046875Q306.4287109375 63.58154296875 306.771240234375 65.002197265625Q307.11376953125 66.4228515625 307.45068359375 68.18603515625H307.09130859375Q307.45068359375 66.4453125 307.804443359375 65.024658203125Q308.158203125 63.60400390625 308.48388671875 62.4248046875L310.01123046875 56.9443359375H312.15625L308.34912109375 69.5H306.3388671875L304.71044921875 63.8173828125Q304.46337890625 62.95263671875 304.2275390625 62.05419921875Q303.99169921875 61.15576171875 303.76708984375 60.21240234375Q303.54248046875 59.26904296875 303.306640625 58.2919921875H303.755859375Q303.53125 59.2578125 303.301025390625 60.206787109375Q303.07080078125 61.15576171875 302.8349609375 62.0654296875Q302.59912109375 62.97509765625 302.35205078125 63.8173828125L300.7236328125 69.5Z M319.9951171875 69.76953125Q318.17578125 69.76953125 316.856201171875 68.9609375Q315.53662109375 68.15234375 314.823486328125 66.70361328125Q314.1103515625 65.2548828125 314.1103515625 63.3232421875Q314.1103515625 61.3916015625 314.806640625 59.92041015625Q315.5029296875 58.44921875 316.777587890625 57.6181640625Q318.05224609375 56.787109375 319.75927734375 56.787109375Q320.7587890625 56.787109375 321.730224609375 57.118408203125Q322.70166015625 57.44970703125 323.493408203125 58.185302734375Q324.28515625 58.9208984375 324.7568359375 60.12255859375Q325.228515625 61.32421875 325.228515625 63.06494140625V63.9072265625H315.48046875V62.2001953125H324.13916015625L323.19580078125 62.8291015625Q323.19580078125 61.59375 322.808349609375 60.633544921875Q322.4208984375 59.67333984375 321.6572265625 59.128662109375Q320.8935546875 58.583984375 319.75927734375 58.583984375Q318.625 58.583984375 317.81640625 59.139892578125Q317.0078125 59.69580078125 316.5810546875 60.588623046875Q316.154296875 61.4814453125 316.154296875 62.50341796875V63.6376953125Q316.154296875 65.0302734375 316.63720703125 66.001708984375Q317.1201171875 66.97314453125 317.990478515625 67.472900390625Q318.86083984375 67.97265625 320.00634765625 67.97265625Q320.74755859375 67.97265625 321.35400390625 67.75927734375Q321.96044921875 67.5458984375 322.3984375 67.113525390625Q322.83642578125 66.68115234375 323.072265625 66.041015625L325.0263671875 66.580078125Q324.734375 67.5234375 324.0380859375 68.2421875Q323.341796875 68.9609375 322.314208984375 69.365234375Q321.28662109375 69.76953125 319.9951171875 69.76953125Z M328.1259765625 69.5V56.9443359375H330.080078125V58.8759765625H330.21484375Q330.56298828125 57.92138671875 331.455810546875 57.343017578125Q332.3486328125 56.7646484375 333.4716796875 56.7646484375Q333.6962890625 56.7646484375 334.005126953125 56.77587890625Q334.31396484375 56.787109375 334.49365234375 56.79833984375V58.8310546875Q334.40380859375 58.80859375 334.04443359375 58.763671875Q333.68505859375 58.71875 333.28076171875 58.71875Q332.38232421875 58.71875 331.669189453125 59.094970703125Q330.9560546875 59.47119140625 330.5517578125 60.128173828125Q330.1474609375 60.78515625 330.1474609375 61.638671875V69.5Z" fill="#9BAAC2"/></g></svg>
